<?xml version="1.0" encoding="UTF-8" standalone="no" ?>
<!DOCTYPE svg PUBLIC "-//W3C//DTD SVG 1.1//EN" "http://www.w3.org/Graphics/SVG/1.1/DTD/svg11.dtd">
<svg xmlns="http://www.w3.org/2000/svg" xmlns:xlink="http://www.w3.org/1999/xlink" version="1.1" width="30" height="30" viewBox="0 0 30 30" xml:space="preserve">
<desc>Created with Fabric.js 5.2.4</desc>
<defs>
</defs>
<rect x="0" y="0" width="100%" height="100%" fill="transparent"></rect>
<g transform="matrix(1 0 0 1 15 15)" id="ae451a84-14bb-40b9-a034-9b42c02d58ce"  >
<rect style="stroke: none; stroke-width: 1; stroke-dasharray: none; stroke-linecap: butt; stroke-dashoffset: 0; stroke-linejoin: miter; stroke-miterlimit: 4; fill: rgb(255,255,255); fill-rule: nonzero; opacity: 1; visibility: hidden;" vector-effect="non-scaling-stroke"  x="-15" y="-15" rx="0" ry="0" width="30" height="30" />
</g>
<g transform="matrix(Infinity NaN NaN Infinity 0 0)" id="045d47e4-7fac-4d77-a80c-a05a05812871"  >
</g>
<g transform="matrix(0.18 0 0 0.18 16 15)"  >
<g style="" vector-effect="non-scaling-stroke"   >
		<g transform="matrix(1 0 0 1 -9.5 0)"  >
<path style="stroke: none; stroke-width: 1; stroke-dasharray: none; stroke-linecap: butt; stroke-dashoffset: 0; stroke-linejoin: miter; stroke-miterlimit: 4; fill: rgb(33,150,243); fill-rule: nonzero; opacity: 1;" vector-effect="non-scaling-stroke"  transform=" translate(-76.94, -82.56)" d="M 0 0 C 50.82 0 101.64 0 154 0 C 154 11.22 154 22.44 154 34 C 114.4 34 74.8 34 34 34 C 35.21548085 54.00917413 35.21548085 54.00917413 36.79272461 73.99047852 C 37.02734375 81.75390625 37.02734375 81.75390625 34 99 C 23.77 109.23 13.54 119.46 3 130 C 77.745 130.495 77.745 130.495 154 131 C 154 142.22 154 153.44 154 165 C 138.25810007 165.02255485 122.5162129 165.04098376 106.77430153 165.05181217 C 99.46541389 165.05697315 92.156537 165.06401208 84.84765625 165.07543945 C 78.47882562 165.08539234 72.11000276 165.09185487 65.74116457 165.09408849 C 62.36748885 165.09539457 58.99383538 165.09847394 55.62016678 165.10573006 C 51.85825509 165.11294496 48.09639011 165.11399075 44.33447266 165.11352539 C 42.64809944 165.1189183 42.64809944 165.1189183 40.92765808 165.12442017 C 39.39636513 165.12235817 39.39636513 165.12235817 37.83413696 165.12025452 C 36.94368494 165.12117631 36.05323292 165.1220981 35.1357975 165.12304783 C 33 165 33 165 31 164 C 31 163.34 31 162.68 31 162 C 30.34 162 29.68 162 29 162 C 29 161.34 29 160.68 29 160 C 28.34 160 27.68 160 27 160 C 27 159.34 27 158.68 27 158 C 26.34 158 25.68 158 25 158 C 25 157.34 25 156.68 25 156 C 24.34 156 23.68 156 23 156 C 23 155.34 23 154.68 23 154 C 22.34 154 21.68 154 21 154 C 21 153.34 21 152.68 21 152 C 20.34 152 19.68 152 19 152 C 19 151.34 19 150.68 19 150 C 18.34 150 17.68 150 17 150 C 17 149.34 17 148.68 17 148 C 16.34 148 15.68 148 15 148 C 15 147.34 15 146.68 15 146 C 14.34 146 13.68 146 13 146 C 13 145.34 13 144.68 13 144 C 12.34 144 11.68 144 11 144 C 11 143.34 11 142.68 11 142 C 10.34 142 9.68 142 9 142 C 9 141.34 9 140.68 9 140 C 8.34 140 7.68 140 7 140 C 7 139.34 7 138.68 7 138 C 6.34 138 5.68 138 5 138 C 5 137.34 5 136.68 5 136 C 4.34 136 3.68 136 3 136 C 3 135.34 3 134.68 3 134 C 2.34 134 1.68 134 1 134 C -0.28311978 131.43376043 -0.12298145 129.6224527 -0.12025452 126.7482605 C -0.12163201 125.63716352 -0.12300951 124.52606655 -0.12442875 123.38129997 C -0.12083064 122.15187235 -0.11723253 120.92244473 -0.11352539 119.65576172 C -0.11364593 118.34711214 -0.11376646 117.03846256 -0.11389065 115.69015694 C -0.11411685 112.14322168 -0.10831177 108.59632001 -0.10128021 105.0493927 C -0.09559454 101.72376598 -0.0953176 98.39814077 -0.09460449 95.07250977 C -0.08935258 85.34000204 -0.07539148 75.6075006 -0.0625 65.875 C -0.041875 44.13625 -0.02125 22.3975 0 0 Z" stroke-linecap="round" />
</g>
		<g transform="matrix(1 0 0 1 12.06 -0.56)"  >
<path style="stroke: none; stroke-width: 1; stroke-dasharray: none; stroke-linecap: butt; stroke-dashoffset: 0; stroke-linejoin: miter; stroke-miterlimit: 4; fill: rgb(33,150,243); fill-rule: nonzero; opacity: 1;" vector-effect="non-scaling-stroke"  transform=" translate(-33.5, -17)" d="M 0 0 C 22.11 0 44.22 0 67 0 C 67 11.22 67 22.44 67 34 C 44.89 34 22.78 34 0 34 C 0 22.78 0 11.56 0 0 Z" stroke-linecap="round" />
</g>
		<g transform="matrix(1 0 0 1 79.06 -78.56)"  >
<path style="stroke: none; stroke-width: 1; stroke-dasharray: none; stroke-linecap: butt; stroke-dashoffset: 0; stroke-linejoin: miter; stroke-miterlimit: 4; fill: rgb(33,150,243); fill-rule: nonzero; opacity: 1;" vector-effect="non-scaling-stroke"  transform=" translate(-7.5, -4)" d="M 0 0 C 2.97 0 5.94 0 9 0 C 9.33 0.99 9.66 1.98 10 3 C 11.65 2.01 13.3 1.02 15 0 C 15 2.64 15 5.28 15 8 C 14.34 7.01 13.68 6.02 13 5 C 9.88214887 5.64644661 9.88214887 5.64644661 9 8 C 8.34 8 7.68 8 7 8 C 7 6.02 7 4.04 7 2 C 6.01 2 5.02 2 4 2 C 4 3.98 4 5.96 4 8 C 3.67 8 3.34 8 3 8 C 3 6.02 3 4.04 3 2 C 2.01 2 1.02 2 0 2 C 0 1.34 0 0.68 0 0 Z" stroke-linecap="round" />
</g>
</g>
</g>
<g transform="matrix(NaN NaN NaN NaN 0 0)"  >
<g style=""   >
</g>
</g>
</svg>